<svg xmlns="http://www.w3.org/2000/svg" viewBox="0 0 134.85 109.93"><defs><style>.cls-1{fill:#fff;}</style></defs><g id="Layer_2" data-name="Layer 2"><g id="Layer_1-2" data-name="Layer 1"><path class="cls-1" d="M2.55,4.79Q.59,44.87.13,85,0,96.23,0,107.45a2.53,2.53,0,0,0,3.16,2.41,273.52,273.52,0,0,1,89.27-7.27q12.43,1,24.73,3.23a2.57,2.57,0,0,0,3.08-1.75,2.52,2.52,0,0,0-1.75-3.07,279.34,279.34,0,0,0-91.55-1q-12.66,2-25.1,5.08L5,107.45Q5,67.31,6.57,27.2,7,16,7.55,4.79c.16-3.22-4.84-3.21-5,0Z"/><path class="cls-1" d="M11,5.82A445.9,445.9,0,0,1,92.3,8.33q10,1.24,20,2.95c3.35.57,6.69,1.19,10,1.84,1.67.32,3.33.66,5,1,.74.15,2.27.14,2.58.87.37.89-.25,2.71-.4,3.57l-.94,5.16L126.66,34l-3.75,20.64q-4.23,23.33-8.47,46.66a2.57,2.57,0,0,0,1.74,3.08,2.52,2.52,0,0,0,3.08-1.75L127,59.93l3.88-21.37c1.27-7,2.77-14,3.81-21.09.49-3.25-.25-6.41-3.67-7.6a36.67,36.67,0,0,0-4.56-1c-1.74-.35-3.49-.69-5.23-1q-10.48-2-21.07-3.47Q79.43,1.47,58.47.47A445.73,445.73,0,0,0,11,.82c-3.2.2-3.22,5.2,0,5Z"/><path class="cls-1" d="M28.74,35.66a94.83,94.83,0,0,1,27.19-19.8L52.26,13C47.52,26.9,36,36.86,26.82,47.8a94.27,94.27,0,0,0-7.6,10.3c-1.34,2.13,1.3,4.69,3.42,3.42Q44.41,48.47,65.53,34.37q6-4,11.86-8L74,22.91c-4.74,8.27-11.52,15-18.12,21.82L33.57,67.66,21,80.55c-2.07,2.13.53,5.09,3,3.93a326.29,326.29,0,0,0,56-33.26q3.73-2.74,7.37-5.6c1.17-.9,2.29-1.89,3.53-2.7,1-.67,2-1.3,3.22-.89l-1.49-3.68c-8.94,14.12-19.89,26.77-31.21,39-3.2,3.47-6.44,6.9-9.68,10.34-2.05,2.17.51,5.06,3,3.93A255.94,255.94,0,0,0,94.65,69.24q5.34-3.67,10.49-7.61a2.58,2.58,0,0,0,.9-3.42,2.53,2.53,0,0,0-3.42-.9A256,256,0,0,1,64,81.69c-3.84,2-7.74,3.83-11.68,5.61l3,3.93C67.06,78.84,78.74,66.39,88.92,52.71q4.27-5.77,8.13-11.83a2.52,2.52,0,0,0-1.49-3.67c-2.85-1-5.67.32-8,2s-4.36,3.43-6.57,5.1q-6.69,5.07-13.62,9.79A322.24,322.24,0,0,1,38.56,71.63q-8.39,4.52-17,8.53l3,3.93L47.2,60.8c7.15-7.36,14.55-14.55,21.36-22.23a79.07,79.07,0,0,0,9.73-13.14C79.47,23.37,77,20.54,74.87,22Q53.95,36.4,32.35,49.75q-6.09,3.77-12.24,7.45l3.42,3.42c8-12.67,19.93-22.17,28-34.77a53.73,53.73,0,0,0,5.57-11.49c.76-2.22-1.86-3.7-3.67-2.82A98.85,98.85,0,0,0,25.2,32.12C23,34.45,26.51,38,28.74,35.66Z"/></g></g></svg>